OpenSim_Sub05_CSBaseline_RCS.mot
version=1
nRows=34
nColumns=11
inDegrees=no
endheader
time	Top_Thigh	Med_Thigh	Bot_Thigh	Top_Shank	2nd_Top_Shank	2nd_Bot_Shank	Bot_Shank	BNOx	BNOy	BNOZ
52.78000000	1208.45245492	1324.11207270	1173.13595162	1122.73119919	1320.08294435	1041.22651460	1090.73716286	0	0	0
52.79000000	1210.33590328	1323.47444988	1172.13442963	1122.35482673	1319.95282366	1041.17958904	1090.80745767	0	0	0
52.80000000	1212.06010493	1322.44991697	1170.97812146	1121.94367502	1319.85629172	1041.12738317	1090.76955297	0	0	0
52.81000000	1213.49949830	1321.00699074	1169.69414649	1121.54595946	1319.81865102	1041.07572972	1090.61827785	0	0	0
52.82000000	1214.52852178	1319.11418792	1168.30962407	1121.20989548	1319.86520408	1041.03046141	1090.34846140	0	0	0
52.83000000	1215.02166045	1316.74008023	1166.85168034	1120.98368246	1320.02123679	1040.99740971	1089.95494153	0	0	0
52.84000000	1214.91533749	1313.92617687	1165.35640048	1120.89430003	1320.29001303	1040.98070499	1089.44425705	0	0	0
52.85000000	1214.33001663	1310.93071085	1163.88649030	1120.90567608	1320.60936118	1040.97942311	1088.85771451	0	0	0
52.86000000	1213.42018792	1308.05198409	1162.50957737	1120.97008120	1320.90501160	1040.99170543	1088.24304846	0	0	0
52.87000000	1212.33566086	1305.57552737	1161.29109091	1121.04149313	1321.10606712	1041.01559000	1087.64628719	0	0	0
52.88000000	1211.15621059	1303.59577786	1160.26356634	1121.09943364	1321.19209278	1041.04756894	1087.08792810	0	0	0
52.89000000	1209.90769962	1302.06006840	1159.43421738	1121.14308834	1321.18149955	1041.08294431	1086.56881492	0	0	0
52.90000000	1208.61460368	1300.91194784	1158.80960638	1121.17214865	1321.09369765	1041.11698756	1086.08928578	0	0	0
52.91000000	1207.30139847	1300.09496501	1158.39629569	1121.18630603	1320.94809727	1041.14497014	1085.64967883	0	0	0
52.92000000	1205.99255970	1299.55266874	1158.20084766	1121.18525188	1320.76410864	1041.16216351	1085.25033222	0	0	0
52.93000000	1204.71256307	1299.22860787	1158.22982465	1121.16867766	1320.56114197	1041.16383910	1084.89158409	0	0	0
52.94000000	1203.48588430	1299.06633123	1158.48978900	1121.13627479	1320.35860746	1041.14526838	1084.57377259	0	0	0
52.95000000	1202.33699909	1299.00938766	1158.98730308	1121.08773470	1320.17591532	1041.10172279	1084.29723587	0	0	0
52.96000000	1201.29038316	1299.00132598	1159.72892923	1121.02274882	1320.03247578	1041.02847379	1084.06231207	0	0	0
52.97000000	1200.37232586	1298.99148007	1160.71984689	1120.94196629	1319.94474617	1040.92261101	1083.86871628	0	0	0
52.98000000	1199.62784009	1298.98890624	1161.95095880	1120.85592314	1319.89869954	1040.79999445	1083.70973148	0	0	0
52.99000000	1199.11298461	1299.03789386	1163.40474524	1120.78098815	1319.86232486	1040.68755760	1083.57484602	0	0	0
53.00000000	1198.88396096	1299.18318765	1165.06357763	1120.73360548	1319.80337862	1040.61237706	1083.45349920	0	0	0
53.01000000	1198.99697066	1299.46953238	1166.90982735	1120.73021929	1319.68961736	1040.60152946	1083.33513035	0	0	0
53.02000000	1199.50821525	1299.94167276	1168.92586584	1120.78727376	1319.48879759	1040.68209139	1083.20917876	0	0	0
53.03000000	1200.47389626	1300.64435355	1171.09406449	1120.92121304	1319.16867581	1040.88113948	1083.06508375	0	0	0
53.04000000	1201.94365744	1301.61770448	1173.39610816	1121.14494482	1318.69720446	1041.22252492	1082.89296147	0	0	0
53.05000000	1203.86901878	1302.83280118	1175.80340858	1121.41846029	1318.04526727	1041.68183711	1082.69305537	0	0	0
53.06000000	1206.12596444	1304.20756129	1178.27946924	1121.66101548	1317.18600457	1042.19751348	1082.47340501	0	0	0
53.07000000	1208.58853551	1305.65853504	1180.78759020	1121.79081856	1316.09261467	1042.70703573	1082.24225043	0	0	0
53.08000000	1211.13077307	1307.10227265	1183.29107154	1121.72607770	1314.73829594	1043.14788559	1082.00783173	0	0	0
53.09000000	1213.62671822	1308.45532434	1185.75321330	1121.38500107	1313.09624672	1043.45754480	1081.77838896	0	0	0
53.10000000	1215.95041207	1309.63424036	1188.13731556	1120.68579685	1311.13966535	1043.57349506	1081.56216219	0	0	0
53.11000000	1217.97589569	1310.55557092	1190.40667837	1119.54667320	1308.84175017	1043.43321811	1081.36739150	0	0	0
